<?xml version="1.0" encoding="UTF-8" standalone="no"?>
<!-- Created with Inkscape (http://www.inkscape.org/) -->
<svg
   xmlns:dc="http://purl.org/dc/elements/1.1/"
   xmlns:cc="http://creativecommons.org/ns#"
   xmlns:rdf="http://www.w3.org/1999/02/22-rdf-syntax-ns#"
   xmlns:svg="http://www.w3.org/2000/svg"
   xmlns="http://www.w3.org/2000/svg"
   xmlns:sodipodi="http://sodipodi.sourceforge.net/DTD/sodipodi-0.dtd"
   xmlns:inkscape="http://www.inkscape.org/namespaces/inkscape"
   id="svg2403"
   sodipodi:version="0.32"
   inkscape:version="0.46"
   width="424.52371"
   height="46.553261"
   xml:space="preserve"
   sodipodi:docname="Logo.svg"
   inkscape:output_extension="org.inkscape.output.svg.inkscape"
   version="1.0"><metadata
     id="metadata2408"><rdf:RDF><cc:Work
         rdf:about=""><dc:format>image/svg+xml</dc:format><dc:type
           rdf:resource="http://purl.org/dc/dcmitype/StillImage" /></cc:Work></rdf:RDF></metadata><defs
     id="defs2406"><inkscape:perspective
       sodipodi:type="inkscape:persp3d"
       inkscape:vp_x="0 : 526.18109 : 1"
       inkscape:vp_y="0 : 1000 : 0"
       inkscape:vp_z="744.09448 : 526.18109 : 1"
       inkscape:persp3d-origin="372.04724 : 350.78739 : 1"
       id="perspective2410" /></defs><sodipodi:namedview
     inkscape:window-height="1003"
     inkscape:window-width="1400"
     inkscape:pageshadow="2"
     inkscape:pageopacity="0.0"
     guidetolerance="10.0"
     gridtolerance="10.0"
     objecttolerance="10.0"
     borderopacity="1.0"
     bordercolor="#666666"
     pagecolor="#ffffff"
     id="base"
     showgrid="false"
     inkscape:zoom="2"
     inkscape:cx="251.00189"
     inkscape:cy="90.025769"
     inkscape:window-x="-4"
     inkscape:window-y="-4"
     inkscape:current-layer="g2412"
     showguides="true"
     inkscape:guide-bbox="true" /><g
     id="g2412"
     inkscape:groupmode="layer"
     inkscape:label="Logoblack"
     transform="matrix(1.25,0,0,-1.25,-1.5325375,46.848242)"
     style="display:inline"><g
       id="g2414"
       transform="scale(0.1,0.1)"><g
         id="g2416"><path
           d="M 432.11,133.07 C 404.95713,33.844433 308.68564,2.35986 222.68,2.35986 C 98.4104,2.35986 12.2603,67.2197 12.2603,189.51 C 12.2603,321.21 117.22,374.68 227.63,374.68 C 267.73,374.68 373.07,365.28 419.5,281.45 L 332.1,253.87 C 322.69,268.72 294.86,307.24 227.03,307.24 C 147.81,307.24 103.36,255.35 103.36,188.51 C 103.36,112.26 163.78,71.6699 230.12,71.6699 C 305.87,71.6699 328.63,111.28 340.02,132.57 L 432.11,133.07 z"
           style="fill:#000000;fill-opacity:1;fill-rule:nonzero;stroke:none"
           id="path2418"
           sodipodi:nodetypes="csssccssscc" /><path
           d="M 470.38,363.8 L 558.02,363.8 L 558.02,229.13 L 765.04,229.13 L 765.04,363.8 L 852.679,363.8 L 852.679,14.25 L 765.04,14.25 L 765.04,164.27 L 558.02,164.27 L 558.02,14.25 L 470.38,14.25 L 470.38,363.8 z"
           style="fill:#000000;fill-opacity:1;fill-rule:nonzero;stroke:none"
           id="path2420"
           sodipodi:nodetypes="ccccccccccccc" /><path
           d="M 1063.17,363.8 L 1157.74,363.8 L 1326.57,14.25 L 1228.54,14.25 L 1193.88,90.5999 L 1023.65,90.5999 L 989.9,14.25 L 894.34,14.25 L 1063.17,363.8 z M 1118.63,256.35985 C 1114.6234,265.35985 1110.7403,274.24241 1109.2203,284.08 C 1107.7013,274.24241 1103.9976,265.35985 1099.853,256.35985 L 1052.02,152.49 L 1164.87,152.49 L 1118.63,256.35985 z"
           style="fill:#000000;fill-opacity:1;fill-rule:nonzero;stroke:none"
           id="path2422"
           sodipodi:nodetypes="cccccccccccsccs" /><path
           d="M 1371.635,363.8 L 1459.27,363.8 L 1459.27,78.6099 L 1635.81,78.6099 L 1635.81,14.25 L 1371.64,14.25 L 1371.635,363.8 z"
           style="fill:#000000;fill-opacity:1;fill-rule:nonzero;stroke:none"
           id="path2424"
           sodipodi:nodetypes="ccccccc" /><path
           d="M 1688.55,363.805 L 1814.8,363.8 L 1907.7705,145.48485 C 1917.4587,122.73485 1920.02,113.35985 1923.72,97.9199 C 1927.305,113.35985 1930.3942,122.73485 1939.9037,145.48485 L 2031.16,363.8 L 2156.42,363.8 L 2156.42,14.2498 L 2073.74,14.2498 L 2073.74,260.45383 C 2073.74,273.62369 2075.742,281.10985 2077.21,291.51 C 2073.7087,281.10985 2070.9856,273.62369 2065.4945,260.45383 L 1962.84,14.2498 L 1883.13,14.2498 L 1778.5038,260.45383 C 1772.9071,273.62369 1771.071,281.10985 1768.26,291.52 C 1769.2639,281.10985 1771.23,273.62369 1771.23,260.45383 L 1771.23,14.2598 L 1688.55,14.2598 L 1688.55,363.805 z"
           style="fill:#000000;fill-opacity:1;fill-rule:nonzero;stroke:none"
           id="path2426"
           sodipodi:nodetypes="ccscsccccscsccscsccc" /><path
           d="M 2237.47,363.805 L 2563.25,363.8 L 2563.25,300.92 L 2325.1,300.92 L 2325.1,222.2 L 2534.85,222.2 L 2534.85,160.31 L 2325.1,160.31 L 2325.1,76.6401 L 2573.15,76.6401 L 2573.15,14.2603 L 2237.47,14.2603 L 2237.47,363.805 z"
           style="fill:#000000;fill-opacity:1;fill-rule:nonzero;stroke:none"
           id="path2428"
           sodipodi:nodetypes="ccccccccccccc" /><path
           d="M 3117.84,120.83 C 3138.37,79.0999 3188.6,67.0999 3236.12,67.9299 C 3257.41,68.2998 3324.17,72.9299 3323.43,115.51 C 3322.99,140.76 3298.5986,146.09288 3279.76,149.41 C 3265.3186,151.95288 3193.3744,161.736 3176.99,164.449 C 3144.7044,169.795 3061.87,183.75142 3061.87,262.959 C 3061.87,348.74195 3153.0006,374.709 3222.84,374.709 C 3303.9924,374.709 3365.8202,359.1788 3408.45,294.27 L 3325.65,272.03 C 3306.0267,307.53852 3261.4282,312.53867 3223.93,312.349 C 3185.3177,312.15369 3145.85,303.56 3146.42,270.389 C 3146.82,247.62 3167.1857,241.85722 3193.56,236.55 C 3207.9357,233.65722 3279.4006,222.85862 3295.85,220.01 C 3336.5106,212.96862 3405.64,199.64 3406.98,122.92 C 3408.94,10.55 3283.04,4.17993 3231.98,3.47998 C 3174.55,2.69019 3085.09,10.8298 3038.5,98.6499 L 3117.84,120.83 z"
           style="fill:#000000;fill-opacity:1;fill-rule:nonzero;stroke:none"
           id="path2430"
           sodipodi:nodetypes="cssssssccsssssscc" /><path
           d="M 2638.94,363.6 L 2883.0955,363.6 C 2909.1226,363.6 3007.3,360.44751 3007.3,259.13 C 3007.3,198.95942 2971.4029,168.22767 2916.69,160.11 L 3022.65,14.0505 L 2922.05,14.0505 L 2826.09,154.66 L 2726.57,154.66 L 2726.57,14.0505 L 2638.94,14.0505 L 2638.94,363.6 z M 2726.58,216.545 L 2866.2,216.55 C 2885.01,216.55067 2918.68,219.03003 2918.68,258.14 C 2918.68,296.46546 2893.3192,302.199 2862.24,302.199 L 2726.58,302.199 L 2726.58,216.545 z"
           style="fill:#000000;fill-opacity:1;fill-rule:nonzero;stroke:none"
           id="path2432"
           sodipodi:nodetypes="czscccccccccssscc" /></g></g></g><g
     inkscape:groupmode="layer"
     id="layer1"
     inkscape:label="ref"
     style="opacity:0.67741939;display:none"
     sodipodi:insensitive="true"><g
       transform="matrix(0.125,0,0,-0.125,-1.5325375,46.848242)"
       id="g2455"
       style="fill:#ff0000"><g
         id="g2457"
         style="fill:#ff0000"><path
           sodipodi:nodetypes="cssssccssscc"
           id="path2459"
           style="fill:#ff0000;fill-opacity:1;fill-rule:nonzero;stroke:none"
           d="M 432.11,133.07 C 425.67,111.29 417.81416,85.969991 386.56,57.3198 C 358.40416,31.509791 311.8,2.35986 222.68,2.35986 C 98.4104,2.35986 12.2603,67.2197 12.2603,189.51 C 12.2603,321.21 117.22,374.68 227.63,374.68 C 267.73,374.68 373.07,365.28 419.5,281.45 L 332.1,253.87 C 322.69,268.72 294.86,307.24 227.03,307.24 C 147.81,307.24 103.36,255.35 103.36,188.51 C 103.36,112.26 163.78,71.6699 230.12,71.6699 C 305.87,71.6699 328.63,111.28 340.02,132.57 L 432.11,133.07 z" /><path
           sodipodi:nodetypes="ccccccccccccc"
           id="path2461"
           style="fill:#ff0000;fill-opacity:1;fill-rule:nonzero;stroke:none"
           d="M 470.38,363.8 L 558.02,363.8 L 558.02,229.13 L 765.04,229.13 L 765.04,363.8 L 852.679,363.8 L 852.679,14.25 L 765.04,14.25 L 765.04,164.27 L 558.02,164.27 L 558.02,14.25 L 470.38,14.25 L 470.38,363.8 z" /><path
           sodipodi:nodetypes="ccccccccccscssccs"
           id="path2463"
           style="fill:#ff0000;fill-opacity:1;fill-rule:nonzero;stroke:none"
           d="M 1063.17,363.8 L 1157.74,363.8 L 1326.57,14.25 L 1228.54,14.25 L 1193.88,90.5999 L 1023.65,90.5999 L 989.9,14.25 L 894.34,14.25 L 1063.17,363.8 z M 1118.63,256.355 C 1117.0975,259.79725 1114.5236,265.71655 1113.0436,270.17655 C 1111.5536,274.63655 1110.0332,279.13 1109.5432,284.08 C 1108.8487,279.08967 1107.426,274.63044 1105.8964,270.17655 C 1104.3174,265.57845 1101.8318,260.64345 1099.7905,256.21119 L 1052.02,152.49 L 1164.87,152.49 L 1118.63,256.355 z" /><path
           sodipodi:nodetypes="ccccccc"
           id="path2465"
           style="fill:#ff0000;fill-opacity:1;fill-rule:nonzero;stroke:none"
           d="M 1371.635,363.8 L 1459.27,363.8 L 1459.27,78.6099 L 1635.81,78.6099 L 1635.81,14.25 L 1371.64,14.25 L 1371.635,363.8 z" /><path
           sodipodi:nodetypes="ccscsccccscsccscsccc"
           id="path2467"
           style="fill:#ff0000;fill-opacity:1;fill-rule:nonzero;stroke:none"
           d="M 1688.55,363.805 L 1814.8,363.8 L 1907.7393,145.59156 C 1917.3938,122.92415 1920.02,112.98 1923.72,97.9199 C 1927.18,112.77 1929.9511,121.7763 1940.06,145.95 L 2031.16,363.8 L 2156.42,363.8 L 2156.42,14.2498 L 2073.74,14.2498 L 2073.74,260.35985 C 2073.74,270.75885 2075.23,278.139 2077.21,291.51 C 2073.74,281.11 2070.5949,272.64705 2065.4632,260.34125 L 1962.84,14.2498 L 1883.13,14.2498 L 1778.535,260.35985 C 1772.8881,273.64688 1772.22,277.159 1768.26,291.52 C 1769.75,276.67 1771.23,273.7366 1771.23,260.33 L 1771.23,14.2598 L 1688.55,14.2598 L 1688.55,363.805 z" /><path
           sodipodi:nodetypes="ccccccccccccc"
           id="path2469"
           style="fill:#ff0000;fill-opacity:1;fill-rule:nonzero;stroke:none"
           d="M 2237.47,363.805 L 2563.25,363.8 L 2563.25,300.92 L 2325.1,300.92 L 2325.1,222.2 L 2534.85,222.2 L 2534.85,160.31 L 2325.1,160.31 L 2325.1,76.6401 L 2573.15,76.6401 L 2573.15,14.2603 L 2237.47,14.2603 L 2237.47,363.805 z" /><path
           sodipodi:nodetypes="cssssssssccssssssscc"
           id="path2471"
           style="fill:#ff0000;fill-opacity:1;fill-rule:nonzero;stroke:none"
           d="M 3117.84,120.83 C 3138.37,79.0999 3188.6,67.0999 3236.12,67.9299 C 3257.41,68.2998 3324.17,72.9299 3323.43,115.51 C 3322.99,140.76 3298.5986,146.09288 3279.76,149.41 C 3265.3186,151.95288 3193.3744,161.736 3176.99,164.449 C 3144.7044,169.795 3063.26,183.759 3061.87,262.959 C 3061.57,280.289 3066.21,298.189 3074.87,312.709 C 3103.25,360.249 3167.39,373.749 3222.84,374.709 C 3273.83,375.599 3313.0139,368.77075 3349.55,349.689 C 3385.4839,330.92175 3401.32,305.53 3408.45,294.27 L 3325.65,272.03 C 3322.58,277.419 3315.476,290.26624 3294.46,300.209 C 3271.046,311.28624 3240.76,312.639 3223.93,312.349 C 3185.32,311.679 3145.85,303.56 3146.42,270.389 C 3146.82,247.62 3167.1857,241.85722 3193.56,236.55 C 3207.9357,233.65722 3279.4006,222.85862 3295.85,220.01 C 3336.5106,212.96862 3405.64,199.64 3406.98,122.92 C 3408.94,10.55 3283.04,4.17993 3231.98,3.47998 C 3174.55,2.69019 3085.09,10.8298 3038.5,98.6499 L 3117.84,120.83 z" /><path
           sodipodi:nodetypes="csssscccccccccsscscc"
           id="path2473"
           style="fill:#ff0000;fill-opacity:1;fill-rule:nonzero;stroke:none"
           d="M 2638.94,363.6 L 2879.56,363.6 C 2919.17,363.6 2955.3861,360.20562 2984.52,326.47 C 3002.4261,305.73562 3007.3,279.43 3007.3,259.13 C 3007.3,232.39 2998.3729,200.73251 2973.63,181.89 C 2954.8029,167.55251 2930.55,162.58 2916.69,160.11 L 3022.65,14.0505 L 2922.05,14.0505 L 2826.09,154.66 L 2726.57,154.66 L 2726.57,14.0505 L 2638.94,14.0505 L 2638.94,363.6 z M 2726.58,216.545 L 2866.2,216.55 C 2885.01,216.55067 2918.68,219.03 2918.68,258.14 C 2918.68,265.07 2917.69,276.959 2911.75,285.37 C 2905.31,293.79 2896.9,302.199 2862.24,302.199 L 2726.58,302.199 L 2726.58,216.545 z" /></g></g></g></svg>